<svg width="55" height="60" viewBox="0 0 55 60" fill="none" xmlns="http://www.w3.org/2000/svg">
<path d="M50.6205 30.0921C50.6205 34.6174 50.6205 39.1426 50.6205 43.6679C50.6205 48.2097 47.7363 52.0703 43.3834 53.2594C42.5474 53.492 41.6845 53.6143 40.8168 53.623C32.0108 53.6497 23.2049 53.6537 14.3989 53.6351C9.64372 53.6242 5.67378 50.3006 4.76127 45.6352C4.63619 44.9889 4.57248 44.3322 4.57102 43.6739C4.5589 34.6655 4.55647 25.6554 4.56374 16.6436C4.56374 12.1879 7.30126 8.43879 11.4845 7.11515C12.4504 6.81038 13.4576 6.65625 14.4704 6.65818C23.152 6.65333 31.8335 6.65333 40.515 6.65818C43.5894 6.65818 46.2021 7.76121 48.2332 10.097C49.8352 11.9406 50.6156 14.1152 50.6192 16.5576C50.6265 21.0699 50.6265 25.5834 50.6192 30.0982L50.6205 30.0921ZM36.2494 45.2545C36.4118 45.2545 36.5742 45.2545 36.7341 45.2545C36.9244 45.2473 37.1146 45.2351 37.3049 45.2145C39.0572 45.0267 40.5538 44.3358 41.6675 42.9358C42.5351 41.8448 42.9314 40.5745 43.0005 39.1988C43.1362 36.6752 42.4394 34.3285 41.4251 32.0606C40.1018 29.1091 38.2647 26.4982 36.0931 24.1103C34.9103 22.7999 33.6311 21.5799 32.2661 20.4606C31.9583 20.2085 31.6384 20.017 31.2264 20.097C31.0311 20.1272 30.8497 20.2165 30.7065 20.3528C30.5634 20.489 30.4653 20.6658 30.4254 20.8594C30.3139 21.337 30.4872 21.7079 30.8665 22.0133C32.8626 23.6145 34.6662 25.4421 36.2409 27.4594C38.0684 29.8097 39.5504 32.3539 40.4205 35.217C40.8592 36.6618 41.0967 38.1345 40.8822 39.6497C40.6398 41.3976 39.5056 42.6279 37.7908 43.0315C37.0537 43.1942 36.2954 43.2397 35.5441 43.1661C34.2989 43.0469 33.0757 42.7582 31.9086 42.3079C31.6142 42.1988 31.3148 42.1455 31.0192 42.2848C30.832 42.3618 30.6729 42.4942 30.5632 42.6643C30.4536 42.8344 30.3987 43.0341 30.406 43.2364C30.406 43.7139 30.6483 44.0327 31.081 44.1988C32.7533 44.8485 34.4644 45.2351 36.2494 45.2545ZM12.7109 21.7188C12.7193 21.8958 12.7303 22.1624 12.7436 22.4303C12.7436 22.5442 12.7605 22.6582 12.7739 22.7721C13.0053 24.8036 13.6379 26.72 14.5153 28.5527C16.6566 33.023 19.8085 36.6836 23.6112 39.8133C24.1045 40.2194 24.7576 40.1564 25.1151 39.6982C25.4726 39.24 25.3842 38.5988 24.897 38.2024C22.7278 36.464 20.7879 34.4573 19.1239 32.2303C17.3194 29.7867 15.8519 27.1697 15.1042 24.2012C14.7867 22.9442 14.611 21.6655 14.8546 20.3733C15.16 18.7503 16.0846 17.657 17.6951 17.1879C18.5434 16.9455 19.4086 16.9394 20.2775 17.0121C21.3585 17.103 22.397 17.383 23.4283 17.7042C23.5513 17.7449 23.6814 17.76 23.8105 17.7488C23.9396 17.7376 24.0652 17.7003 24.1794 17.6391C24.2936 17.5778 24.3943 17.494 24.4751 17.3927C24.556 17.2914 24.6154 17.1747 24.6498 17.0497C24.8231 16.4921 24.5819 15.9588 24.0439 15.7709C22.317 15.1648 20.5465 14.817 18.7118 14.9406C16.762 15.0715 15.1042 15.8012 13.9215 17.4145C13.0053 18.6667 12.6963 20.1042 12.7109 21.7188ZM12.6757 38.497C12.7315 39.0461 12.7484 39.6036 12.8514 40.1442C13.2695 42.3467 14.468 43.9442 16.5839 44.7782C17.8842 45.2909 19.2499 45.3394 20.6156 45.1794C22.7048 44.937 24.6595 44.2509 26.5439 43.3467C30.0097 41.6812 32.9847 39.3552 35.6168 36.5721C36.1476 36.0121 36.6481 35.4218 37.1425 34.8279C37.2739 34.6677 37.3513 34.4701 37.3637 34.2633C37.3761 34.0565 37.3229 33.8511 37.2116 33.6764C37.1098 33.5013 36.9536 33.3641 36.7669 33.2858C36.5801 33.2075 36.3729 33.1923 36.1767 33.2424C35.9065 33.3216 35.6635 33.4744 35.475 33.6836C34.1216 35.2633 32.6318 36.7206 31.0228 38.0388C28.6755 39.9539 26.1161 41.4958 23.2368 42.4752C21.7729 42.9733 20.2763 43.2861 18.7155 43.1661C16.7887 43.0182 15.4181 41.9539 14.9709 40.143C14.8025 39.4606 14.7879 38.7273 14.7952 38.017C14.8085 36.8558 15.0969 35.7345 15.429 34.623C15.6096 34.017 15.3248 33.4994 14.7637 33.3297C14.631 33.2893 14.4915 33.276 14.3536 33.2905C14.2157 33.3051 14.082 33.3471 13.9607 33.4143C13.8393 33.4814 13.7326 33.5723 13.647 33.6814C13.5614 33.7906 13.4985 33.9158 13.4622 34.0497C12.9885 35.4868 12.7236 36.9845 12.6757 38.497ZM43.0538 21.657C43.0223 21.2291 43.0187 20.7976 42.9557 20.3745C42.5764 17.8497 41.2349 16.0945 38.7809 15.2764C37.3049 14.7842 35.7913 14.84 34.2802 15.0921C31.9559 15.48 29.817 16.377 27.7799 17.5273C24.2499 19.5224 21.2736 22.177 18.6488 25.2461C18.5571 25.3501 18.4869 25.4712 18.4421 25.6025C18.3973 25.7338 18.3789 25.8726 18.3879 26.0111C18.3969 26.1495 18.4332 26.2847 18.4946 26.4091C18.556 26.5335 18.6413 26.6445 18.7458 26.7358C19.182 27.1079 19.811 27.0267 20.2278 26.5818C21.2324 25.5115 22.2055 24.4 23.2731 23.4012C25.818 21.0073 28.6755 19.0788 31.9632 17.8424C33.5276 17.2533 35.1406 16.8836 36.8287 16.9867C37.8308 17.0485 38.7676 17.3115 39.5504 17.977C40.4884 18.7758 40.8749 19.84 40.9525 21.0351C41.0385 22.337 40.8107 23.6012 40.4835 24.8533C40.4443 24.9868 40.4328 25.1268 40.4497 25.2649C40.4666 25.4029 40.5116 25.536 40.5818 25.656C40.6521 25.7761 40.7462 25.8804 40.8583 25.9627C40.9704 26.045 41.0981 26.1035 41.2336 26.1345C41.5025 26.1951 41.7844 26.1474 42.0184 26.0018C42.2523 25.8562 42.4197 25.6243 42.4842 25.3564C42.7969 24.1442 43.0381 22.92 43.0538 21.657ZM27.906 23.4752C27.8478 23.6085 27.8163 23.6739 27.7921 23.7418C27.4164 24.7624 27.0371 25.7806 26.6699 26.8036C26.5144 27.2667 26.2554 27.6883 25.9125 28.0361C25.5695 28.384 25.1518 28.649 24.691 28.8109C24.1554 29.0133 23.6173 29.2048 23.0805 29.4036C22.4855 29.6242 21.8929 29.8497 21.23 30.0982C21.3694 30.16 21.4324 30.1927 21.5002 30.2194C22.5364 30.6036 23.5725 30.9903 24.611 31.3697C25.6495 31.7491 26.3548 32.4509 26.7123 33.5139C27.0347 34.4715 27.3982 35.4158 27.7448 36.3648C27.7848 36.4739 27.8357 36.5794 27.9035 36.7382C27.9569 36.617 27.9835 36.5733 28.0029 36.5212C28.3665 35.5176 28.7482 34.5188 29.0936 33.5079C29.4571 32.4376 30.1684 31.7358 31.2276 31.3588C32.197 31.0145 33.158 30.6461 34.1214 30.2861C34.2426 30.2424 34.3517 30.1903 34.5153 30.1212C34.3941 30.0655 34.3359 30.0352 34.2729 30.0121C33.2029 29.6097 32.1304 29.2133 31.0628 28.8C30.6168 28.6384 30.2125 28.3795 29.879 28.0422C29.5455 27.7049 29.2913 27.2975 29.1348 26.8497C28.7821 25.9018 28.4428 24.9503 28.0974 24L27.906 23.4752Z" fill="black"/>
<path d="M36.2494 45.2545C34.4644 45.2352 32.7533 44.8424 31.0931 44.2049C30.6604 44.0388 30.4157 43.72 30.4181 43.2424C30.4108 43.0402 30.4657 42.8405 30.5753 42.6704C30.685 42.5003 30.8441 42.3678 31.0313 42.2909C31.327 42.1515 31.6263 42.2049 31.9207 42.3139C33.0878 42.7643 34.311 43.053 35.5562 43.1721C36.3076 43.2457 37.0658 43.2003 37.803 43.0376C39.5177 42.6339 40.6483 41.4036 40.8943 39.6558C41.1088 38.1406 40.8713 36.6679 40.4326 35.223C39.5625 32.3564 38.0805 29.8121 36.253 27.4655C34.6783 25.4482 32.8747 23.6206 30.8786 22.0194C30.4993 21.7139 30.326 21.343 30.4375 20.8655C30.4774 20.6719 30.5755 20.4951 30.7187 20.3588C30.8618 20.2226 31.0432 20.1333 31.2385 20.103C31.6505 20.0194 31.9656 20.2109 32.2782 20.4667C33.6432 21.586 34.9224 22.8059 36.1052 24.1164C38.2731 26.5042 40.1103 29.1152 41.4372 32.0667C42.454 34.3345 43.1508 36.6812 43.0126 39.2049C42.9387 40.5806 42.5424 41.8533 41.6796 42.9418C40.5647 44.3418 39.0681 45.0327 37.317 45.2206C37.1268 45.2412 36.9365 45.2533 36.7462 45.2606C36.5742 45.2594 36.4118 45.2545 36.2494 45.2545Z" fill="white"/>
<path d="M12.7109 21.7188C12.6963 20.1042 13.0053 18.6667 13.9227 17.4145C15.1054 15.8012 16.7632 15.0715 18.713 14.9406C20.5502 14.8194 22.3207 15.1661 24.0451 15.7709C24.5795 15.9588 24.8207 16.4921 24.651 17.0497C24.6166 17.1747 24.5572 17.2914 24.4763 17.3927C24.3955 17.494 24.2949 17.5779 24.1806 17.6391C24.0664 17.7003 23.9409 17.7376 23.8117 17.7488C23.6826 17.76 23.5526 17.7449 23.4295 17.7042C22.3982 17.383 21.3597 17.0982 20.2787 17.0121C19.4098 16.9394 18.5434 16.9418 17.6963 17.1879C16.0858 17.657 15.1612 18.7503 14.8558 20.3733C14.6134 21.6655 14.7879 22.9442 15.1054 24.2012C15.8556 27.1697 17.3207 29.7867 19.1251 32.2303C20.7891 34.4573 22.729 36.464 24.8982 38.2024C25.3829 38.5988 25.4775 39.2376 25.1163 39.6982C24.7552 40.1588 24.1057 40.2194 23.6125 39.8133C19.8097 36.6836 16.6578 33.0255 14.5165 28.5527C13.6391 26.72 13.0065 24.8036 12.7751 22.7721C12.7618 22.6582 12.7509 22.5442 12.7448 22.4303C12.7302 22.1624 12.7242 21.8958 12.7109 21.7188Z" fill="white"/>
<path d="M12.6757 38.497C12.7227 36.9855 12.9863 35.4886 13.4586 34.0521C13.495 33.9183 13.558 33.7932 13.6436 33.6842C13.7293 33.5752 13.836 33.4845 13.9574 33.4175C14.0787 33.3505 14.2123 33.3085 14.3502 33.294C14.4881 33.2796 14.6274 33.2929 14.7601 33.3333C15.3211 33.503 15.6083 34.0255 15.4253 34.6267C15.0933 35.7358 14.8049 36.857 14.7916 38.0206C14.7843 38.7309 14.7988 39.4642 14.9673 40.1467C15.4144 41.9648 16.785 43.0218 18.7118 43.1697C20.2727 43.2909 21.7693 42.977 23.2332 42.4788C26.1125 41.4994 28.6718 39.9576 31.0191 38.0424C32.6294 36.7244 34.1205 35.2671 35.475 33.6873C35.6635 33.478 35.9064 33.3253 36.1767 33.2461C36.3729 33.1959 36.5801 33.2112 36.7669 33.2895C36.9536 33.3678 37.1098 33.5049 37.2116 33.68C37.3228 33.8547 37.3761 34.0602 37.3637 34.267C37.3513 34.4738 37.2739 34.6713 37.1425 34.8315C36.6481 35.4255 36.1476 36.0158 35.6168 36.5758C32.9847 39.3636 30.0097 41.6849 26.5439 43.3503C24.6595 44.2545 22.7048 44.9406 20.6156 45.183C19.2438 45.343 17.8841 45.2945 16.5839 44.7818C14.468 43.9479 13.2695 42.3503 12.8514 40.1479C12.7484 39.6036 12.7315 39.0461 12.6757 38.497Z" fill="white"/>
<path d="M43.0538 21.657C43.038 22.92 42.7969 24.1442 42.4842 25.3564C42.4197 25.6243 42.2523 25.8562 42.0183 26.0018C41.7844 26.1474 41.5025 26.1951 41.2336 26.1345C41.0976 26.1035 40.9693 26.0449 40.8568 25.9623C40.7443 25.8797 40.65 25.7749 40.5796 25.6543C40.5093 25.5337 40.4645 25.4 40.448 25.2614C40.4314 25.1228 40.4435 24.9822 40.4835 24.8485C40.8107 23.5964 41.0385 22.3321 40.9525 21.0303C40.8749 19.8352 40.4884 18.7709 39.5504 17.9721C38.7688 17.3067 37.8308 17.0436 36.8286 16.9818C35.1406 16.8788 33.5276 17.2485 31.9632 17.8376C28.6755 19.0739 25.8168 21.0024 23.2731 23.3964C22.2055 24.4012 21.2324 25.5067 20.2278 26.577C19.811 27.0218 19.182 27.103 18.7458 26.7309C18.6413 26.6396 18.556 26.5286 18.4946 26.4043C18.4331 26.2799 18.3969 26.1446 18.3879 26.0062C18.3789 25.8678 18.3973 25.729 18.4421 25.5977C18.4868 25.4664 18.5571 25.3453 18.6488 25.2412C21.2736 22.1721 24.2499 19.5176 27.7799 17.5224C29.817 16.3721 31.9559 15.4752 34.2802 15.0873C35.7913 14.8352 37.3097 14.7794 38.7809 15.2715C41.2348 16.0897 42.5763 17.8448 42.9556 20.3697C43.0199 20.7976 43.0199 21.2291 43.0538 21.657Z" fill="white"/>
<path d="M27.9096 23.48L28.1023 24.0073C28.4476 24.9576 28.787 25.9091 29.1396 26.857C29.2961 27.3048 29.5504 27.7121 29.8838 28.0495C30.2173 28.3868 30.6217 28.6457 31.0676 28.8073C32.1352 29.2158 33.2077 29.6121 34.2777 30.0194C34.3383 30.0424 34.3989 30.0727 34.5201 30.1285C34.3565 30.1976 34.2438 30.2497 34.1263 30.2933C33.1629 30.657 32.2019 31.0206 31.2324 31.3661C30.1733 31.743 29.4632 32.4449 29.0984 33.5152C28.7542 34.5261 28.3713 35.5248 28.0078 36.5285C27.9884 36.5806 27.9617 36.6291 27.9084 36.7455C27.8405 36.5867 27.7872 36.4812 27.7496 36.3721C27.4031 35.423 27.0395 34.4788 26.7172 33.5212C26.3536 32.4582 25.658 31.7588 24.6158 31.377C23.5737 30.9952 22.5412 30.6109 21.5051 30.2267C21.4372 30.2024 21.3742 30.1697 21.2348 30.1055C21.8977 29.863 22.4903 29.6315 23.0853 29.4109C23.6221 29.2121 24.1602 29.0206 24.6958 28.8182C25.1566 28.6562 25.5744 28.3912 25.9173 28.0434C26.2602 27.6955 26.5193 27.274 26.6747 26.8109C27.0383 25.7879 27.4212 24.7697 27.7969 23.7491C27.8199 23.6788 27.8514 23.6133 27.9096 23.48Z" fill="white"/>
</svg>
