<svg width="20" height="20" viewBox="0 0 20 20" fill="none" xmlns="http://www.w3.org/2000/svg">
<path d="M7.61957 8.90915L7.792 8.73674C9.44091 7.08775 12.1144 7.08775 13.7633 8.73674C15.4123 10.3857 15.4123 13.0592 13.7633 14.7081L11.3748 17.0966C9.72591 18.7456 7.0524 18.7456 5.40345 17.0966C3.75451 15.4477 3.75451 12.7742 5.40345 11.1252L5.79041 10.7383" stroke="white" stroke-width="1.25" stroke-linecap="round"/>
<path d="M14.2097 9.26175L14.5966 8.87483C16.2456 7.22587 16.2456 4.5524 14.5966 2.90345C12.9477 1.25451 10.2742 1.25451 8.62525 2.90345L6.23671 5.292C4.58776 6.94095 4.58776 9.61441 6.23671 11.2633C7.88566 12.9123 10.5592 12.9123 12.2081 11.2633L12.3805 11.0909" stroke="white" stroke-width="1.25" stroke-linecap="round"/>
</svg>
