<svg width="20" height="20" viewBox="0 0 20 20" fill="none" xmlns="http://www.w3.org/2000/svg">
<path d="M17.9977 2.11873C17.6082 1.69924 16.9974 1.54211 16.4139 1.48587C15.8008 1.42678 15.0666 1.46608 14.276 1.56977C12.6906 1.77773 10.7751 2.2591 8.93509 2.85139C7.09393 3.44404 5.29921 4.15713 3.95514 4.84031C3.28621 5.18032 2.70604 5.52435 2.28426 5.8548C2.07425 6.01934 1.88261 6.19659 1.73845 6.38523C1.60095 6.56516 1.45629 6.82116 1.45827 7.12977C1.4635 7.93984 2.01516 8.51234 2.60265 8.89659C3.20229 9.28884 3.98324 9.58442 4.7596 9.81592C5.54429 10.0499 6.36947 10.2313 7.07886 10.3783C7.12536 10.3878 7.21828 10.4071 7.33215 10.4306C7.76095 10.5192 7.97535 10.5635 8.1769 10.5032C8.37842 10.4428 8.53342 10.2879 8.84326 9.978L11.9107 6.91066C12.2361 6.58523 12.7638 6.58523 13.0892 6.91066C13.4146 7.2361 13.4146 7.76374 13.0892 8.08918L10.2287 10.9497C9.91276 11.2656 9.75484 11.4235 9.69509 11.6285C9.63526 11.8335 9.68351 12.0511 9.77992 12.4863C10.1536 14.1736 10.4781 15.5678 10.8018 16.5058C10.9909 17.0537 11.2037 17.5279 11.4731 17.8777C11.7543 18.2427 12.1368 18.5184 12.6402 18.5407C12.9536 18.5545 13.2142 18.4114 13.3928 18.2786C13.5812 18.1388 13.7583 17.9511 13.9225 17.746C14.2525 17.3337 14.5993 16.7632 14.9443 16.1038C15.6376 14.7788 16.3718 13.0023 16.993 11.1746C17.6139 9.34767 18.1313 7.44209 18.3806 5.85834C18.5049 5.0685 18.5664 4.33498 18.5323 3.72056C18.4998 3.13789 18.3757 2.5258 17.9977 2.11873Z" fill="white"/>
</svg>
