<svg width="20" height="20" viewBox="0 0 20 20" fill="none" xmlns="http://www.w3.org/2000/svg">
<path d="M16.6667 7.91675V5.66675C16.6667 4.26661 16.6667 3.56655 16.3942 3.03177C16.1545 2.56136 15.7721 2.17891 15.3017 1.93923C14.7668 1.66675 14.0668 1.66675 12.6667 1.66675H7.33333C5.9332 1.66675 5.23313 1.66675 4.69836 1.93923C4.22795 2.17891 3.8455 2.56136 3.60582 3.03177C3.33333 3.56655 3.33333 4.26661 3.33333 5.66675V14.3334C3.33333 15.7336 3.33333 16.4336 3.60582 16.9684C3.8455 17.4388 4.22795 17.8212 4.69836 18.0609C5.23313 18.3334 5.9332 18.3334 7.33333 18.3334H11.6667M11.6667 9.16675H6.66667M8.33333 12.5001H6.66667M13.3333 5.83341H6.66667M13.75 12.5019C13.8968 12.0846 14.1867 11.7326 14.5681 11.5084C14.9496 11.2842 15.3981 11.2022 15.8342 11.2771C16.2702 11.3518 16.6658 11.5786 16.9508 11.9171C17.2358 12.2556 17.3917 12.684 17.391 13.1265C17.391 14.3756 15.5174 15.0001 15.5174 15.0001M15.5416 17.5001H15.5499" stroke="white" stroke-width="1.25" stroke-linecap="round" stroke-linejoin="round"/>
</svg>
