<svg width="20" height="20" viewBox="0 0 20 20" fill="none" xmlns="http://www.w3.org/2000/svg">
<path d="M9.99984 18.3334C14.6022 18.3334 18.3332 14.6024 18.3332 10.0001C18.3332 5.39771 14.6022 1.66675 9.99984 1.66675C5.39746 1.66675 1.6665 5.39771 1.6665 10.0001C1.6665 14.6024 5.39746 18.3334 9.99984 18.3334Z" stroke="#CACFD8" stroke-width="1.25" stroke-linecap="round" stroke-linejoin="round"/>
<path d="M6.6665 8.00008C6.6665 7.53337 6.6665 7.30001 6.75733 7.12176C6.83723 6.96496 6.96471 6.83747 7.12151 6.75757C7.29977 6.66675 7.53313 6.66675 7.99984 6.66675H11.9998C12.4666 6.66675 12.6999 6.66675 12.8782 6.75757C13.035 6.83747 13.1624 6.96496 13.2423 7.12176C13.3332 7.30001 13.3332 7.53337 13.3332 8.00008V12.0001C13.3332 12.4668 13.3332 12.7002 13.2423 12.8784C13.1624 13.0352 13.035 13.1627 12.8782 13.2426C12.6999 13.3334 12.4666 13.3334 11.9998 13.3334H7.99984C7.53313 13.3334 7.29977 13.3334 7.12151 13.2426C6.96471 13.1627 6.83723 13.0352 6.75733 12.8784C6.6665 12.7002 6.6665 12.4668 6.6665 12.0001V8.00008Z" stroke="#CACFD8" stroke-width="1.25" stroke-linecap="round" stroke-linejoin="round"/>
</svg>
